<svg height="512" viewBox="0 0 512 512" width="512" xmlns="http://www.w3.org/2000/svg" xmlns:xlink="http://www.w3.org/1999/xlink"><linearGradient id="New_Gradient_Swatch_2" gradientUnits="userSpaceOnUse" x1="256" x2="256" y1="56.247" y2="466.125"><stop offset="0" stop-color="#fc5c7d"/><stop offset=".129" stop-color="#f35e85"/><stop offset=".343" stop-color="#d9659b"/><stop offset=".616" stop-color="#b070bf"/><stop offset=".934" stop-color="#777ff0"/><stop offset="1" stop-color="#6a82fb"/></linearGradient><linearGradient id="New_Gradient_Swatch_2-2" x1="124" x2="124" xlink:href="#New_Gradient_Swatch_2" y1="56.247" y2="466.125"/><linearGradient id="New_Gradient_Swatch_2-3" x1="388" x2="388" xlink:href="#New_Gradient_Swatch_2" y1="56.247" y2="466.125"/><g id="GD001"><path d="m360 280a8 8 0 0 0 -3.884-6.86l-36.271-21.762-7.318-212.2a23.907 23.907 0 0 0 -23.985-23.178h-65.084a23.907 23.907 0 0 0 -23.985 23.173l-7.318 212.205-36.271 21.762a8 8 0 0 0 -3.884 6.86v52.67a397.408 397.408 0 0 0 28.549 148.244 23.886 23.886 0 0 0 22.284 15.086h106.334a23.886 23.886 0 0 0 22.284-15.086 397.408 397.408 0 0 0 28.549-148.244zm-136.542-248h65.084a7.969 7.969 0 0 1 8 7.725l7.177 208.275h-95.438l7.182-208.276a7.969 7.969 0 0 1 7.995-7.724zm85.709 448h-106.334a7.963 7.963 0 0 1 -7.429-5.029q-3.3-8.259-6.206-16.624a63.481 63.481 0 0 0 26.162 5.653h81.28a63.465 63.465 0 0 0 26.162-5.653q-2.909 8.363-6.206 16.624a7.963 7.963 0 0 1 -7.429 5.029zm34.833-147.33a381.448 381.448 0 0 1 -14.2 103.323l-8.743 5.246a47.483 47.483 0 0 1 -24.417 6.761h-81.28a47.479 47.479 0 0 1 -24.414-6.76l-8.745-5.247a381.448 381.448 0 0 1 -14.201-103.323v-48.141l34.216-20.529h107.568l34.216 20.529z" fill="url(#New_Gradient_Swatch_2)"/><path d="m107.4 474.971q-3.3-8.259-6.206-16.624a63.481 63.481 0 0 0 26.166 5.653h24.64v-16h-24.64a47.479 47.479 0 0 1 -24.414-6.76l-8.746-5.247a381.448 381.448 0 0 1 -14.2-103.323v-48.141l34.216-20.529h37.784v-16h-31.719l7.182-208.276a7.969 7.969 0 0 1 8-7.724h48.537v-16h-48.542a23.907 23.907 0 0 0 -23.985 23.173l-7.318 212.205-36.271 21.762a8 8 0 0 0 -3.884 6.86v52.67a397.408 397.408 0 0 0 28.549 148.244 23.886 23.886 0 0 0 22.284 15.086h53.167v-16h-53.167a7.963 7.963 0 0 1 -7.433-5.029z" fill="url(#New_Gradient_Swatch_2-2)"/><path d="m444.116 273.14-36.271-21.762-7.318-212.2a23.907 23.907 0 0 0 -23.985-23.178h-48.542v16h48.542a7.969 7.969 0 0 1 8 7.725l7.177 208.275h-31.719v16h37.784l34.216 20.529v48.141a381.448 381.448 0 0 1 -14.2 103.323l-8.743 5.246a47.483 47.483 0 0 1 -24.417 6.761h-24.64v16h24.64a63.465 63.465 0 0 0 26.162-5.653q-2.909 8.363-6.206 16.624a7.963 7.963 0 0 1 -7.429 5.029h-53.167v16h53.167a23.886 23.886 0 0 0 22.284-15.086 397.408 397.408 0 0 0 28.549-148.244v-52.67a8 8 0 0 0 -3.884-6.86z" fill="url(#New_Gradient_Swatch_2-3)"/><g fill="url(#New_Gradient_Swatch_2)"><path d="m248 296h16v16h-16z"/><path d="m232 328h48v16h-48z"/></g></g></svg>