<svg height="512" viewBox="0 0 512 512" width="512" xmlns="http://www.w3.org/2000/svg" xmlns:xlink="http://www.w3.org/1999/xlink"><linearGradient id="New_Gradient_Swatch_2" gradientUnits="userSpaceOnUse" x1="256" x2="256" y1="89.523" y2="444.544"><stop offset="0" stop-color="#fc5c7d"/><stop offset=".129" stop-color="#f35e85"/><stop offset=".343" stop-color="#d9659b"/><stop offset=".616" stop-color="#b070bf"/><stop offset=".934" stop-color="#777ff0"/><stop offset="1" stop-color="#6a82fb"/></linearGradient><g id="GD001" fill="url(#New_Gradient_Swatch_2)"><path d="m413.657 250.343-55.2-55.2a23.973 23.973 0 0 0 9.543-19.143v-16a24.028 24.028 0 0 0 -24-24h-25.566l32.35-51.76a8 8 0 0 0 -.537-9.24l-32-40a8 8 0 0 0 -6.247-3h-112a8 8 0 0 0 -6.247 3l-32 40a8 8 0 0 0 -.537 9.237l32.35 51.763h-25.566a24.028 24.028 0 0 0 -24 24v16a23.973 23.973 0 0 0 9.544 19.142l-55.2 55.2a8 8 0 0 0 -2.324 6.208l14.458 209.65a32.1 32.1 0 0 0 31.922 29.8h227.2a32.1 32.1 0 0 0 31.924-29.8l14.459-209.651a8 8 0 0 0 -2.326-6.206zm-25.322 174.524-27.395 16.433a46.912 46.912 0 0 1 -16.94 6.118v-191.418a7.994 7.994 0 0 0 -.845-3.578l-26.211-52.422h23.742l59.083 59.082zm-89.279-224.867 28.944 57.889v190.111h-144v-190.111l28.944-57.889zm-35.056-64v-48h65.566l-30 48zm63.355-64h-46.391l29.521-21.087zm-71.355-1.831-31.036-22.169h62.072zm-54.485-19.256 29.521 21.087h-46.391zm-19.081 37.087h65.566v48h-35.566zm-22.434 72a8.009 8.009 0 0 1 8-8h176a8.009 8.009 0 0 1 8 8v16a8.009 8.009 0 0 1 -8 8h-176a8.009 8.009 0 0 1 -8-8zm11.314 40h23.742l-26.211 52.422a7.994 7.994 0 0 0 -.845 3.578v191.418a46.92 46.92 0 0 1 -16.944-6.118l-27.391-16.433-11.434-165.785zm198.286 280h-227.2a16.05 16.05 0 0 1 -15.963-14.9l-1.432-20.77 17.813 10.687a62.944 62.944 0 0 0 32.412 8.983h161.54a62.945 62.945 0 0 0 32.406-8.979l17.817-10.69-1.432 20.77a16.05 16.05 0 0 1 -15.961 14.899z"/><path d="m248 272h16v16h-16z"/><path d="m232 304h48v16h-48z"/></g></svg>