<svg height="512" viewBox="0 0 512 512" width="512" xmlns="http://www.w3.org/2000/svg" xmlns:xlink="http://www.w3.org/1999/xlink"><linearGradient id="New_Gradient_Swatch_2" gradientUnits="userSpaceOnUse" x1="256" x2="256" y1="91.587" y2="425.456"><stop offset="0" stop-color="#fc5c7d"/><stop offset=".129" stop-color="#f35e85"/><stop offset=".343" stop-color="#d9659b"/><stop offset=".616" stop-color="#b070bf"/><stop offset=".934" stop-color="#777ff0"/><stop offset="1" stop-color="#6a82fb"/></linearGradient><linearGradient id="New_Gradient_Swatch_2-2" x1="271.731" x2="271.731" xlink:href="#New_Gradient_Swatch_2" y1="91.587" y2="425.456"/><linearGradient id="New_Gradient_Swatch_2-4" x1="312" x2="312" xlink:href="#New_Gradient_Swatch_2" y1="91.587" y2="425.456"/><g id="GD001"><path d="m176 256h160v80h16v-128a32.036 32.036 0 0 0 -32-32h-8v-16h8a8 8 0 0 0 8-8v-48a8 8 0 0 0 -8-8h-32v-48a32 32 0 0 0 -64 0v48h-32a8 8 0 0 0 -8 8v48a8 8 0 0 0 8 8h8v16h-8a32.036 32.036 0 0 0 -32 32v200h16zm64-208a16 16 0 0 1 32 0v48h-32zm-40 64h112v32h-112zm16 48h80v16h-80zm-24 32h128a16.019 16.019 0 0 1 16 16v32h-160v-32a16.019 16.019 0 0 1 16-16z" fill="url(#New_Gradient_Swatch_2)"/><path d="m476.387 399.293a32.038 32.038 0 0 0 -37.161-25.83l-47.241 8.5-5.666-31.493a8 8 0 0 0 -9.29-6.458l-47.242 8.5a8 8 0 0 0 -6.458 9.291l1.416 7.872-23.62 4.25a8 8 0 0 0 -6.457 9.29l2.879 16-211.58 45.392a24.546 24.546 0 0 0 5.065 48.546 25.135 25.135 0 0 0 3.62-.264l214.134-31.2 2.88 16.006a8 8 0 0 0 9.291 6.457l23.62-4.249 1.416 7.873a8 8 0 0 0 9.291 6.457l47.241-8.5a8 8 0 0 0 6.457-9.29l-5.665-31.494 47.242-8.5a32 32 0 0 0 25.828-37.159zm-384.042 77.764a8.542 8.542 0 0 1 -3.023-16.805l211.06-45.278 5.57 30.962zm233.655-10.067-14.165-78.736 15.747-2.833 14.165 78.736zm34.327 10.081-19.831-110.23 31.5-5.666 19.83 110.23zm97.703-62.981a15.892 15.892 0 0 1 -10.3 6.615l-47.242 8.5-5.666-31.494 47.241-8.5a16 16 0 0 1 15.967 24.879z" fill="url(#New_Gradient_Swatch_2-2)"/><path d="m256 280a8 8 0 0 0 -6.141 2.873c-5.654 6.772-33.859 41.545-33.859 61.127a40 40 0 0 0 80 0c0-19.582-28.2-54.355-33.859-61.127a8 8 0 0 0 -6.141-2.873zm24 64a24 24 0 0 1 -48 0c0-8.585 12.558-28.234 24-43.175 11.442 14.941 24 34.59 24 43.175z" fill="url(#New_Gradient_Swatch_2)"/><path d="m304 272h16v16h-16z" fill="url(#New_Gradient_Swatch_2-4)"/></g></svg>